<svg width="137" height="66" fill="none" xmlns="http://www.w3.org/2000/svg"><path d="M1.406 37V12.39h3.059v10.723h3.164v2.989H4.465V37H1.406zm7.98-10.898v-2.989h3.13V12.391h3.093V37h-3.093V26.102h-3.13zm8.966 5.695v-8.684c0-1.101.492-2.18 1.476-3.234 1.219-1.266 2.742-1.899 4.57-1.899v2.848c-1.382 0-2.343.574-2.882 1.723a2.476 2.476 0 00-.246 1.055v7.734c0 .867.398 1.605 1.195 2.215a3.137 3.137 0 001.933.633v2.847c-2.226 0-3.949-.902-5.168-2.707-.585-.89-.878-1.734-.878-2.531zm7.558 5.238v-2.847c1.242 0 2.133-.563 2.672-1.688.188-.375.281-.738.281-1.09v-7.805c0-.96-.41-1.722-1.23-2.285a3.204 3.204 0 00-1.758-.492V17.98c2.156 0 3.82.88 4.992 2.637.586.867.88 1.7.88 2.496v8.684c0 1.148-.493 2.262-1.477 3.34-1.149 1.242-2.602 1.875-4.36 1.898zm8.508-5.097V18.015h2.988v13.57c0 .844.422 1.547 1.266 2.11a3.446 3.446 0 001.863.527v2.953c-2.25 0-3.984-.88-5.203-2.637-.61-.89-.914-1.758-.914-2.602zm7.664 5.238v-2.953c1.266 0 2.191-.504 2.777-1.512.211-.375.317-.75.317-1.125v-13.57h2.988v13.922c0 1.101-.504 2.19-1.512 3.269-1.218 1.29-2.742 1.945-4.57 1.969zm8.121-5.168l2.777-.528c0 1.055.551 1.887 1.653 2.497.539.257 1.054.398 1.547.421v2.778c-2.274 0-3.973-.82-5.098-2.461-.586-.867-.879-1.77-.879-2.707zm.176-8.649c0-2.132.973-3.715 2.918-4.746.937-.492 1.875-.738 2.812-.738v2.742c-1.078 0-1.91.445-2.496 1.336-.304.445-.457.914-.457 1.406 0 .75.586 1.36 1.758 1.828.89.375 2.613.868 5.168 1.477 1.594.328 2.73 1.113 3.41 2.355.352.657.527 1.395.527 2.215 0 2.25-.902 3.914-2.707 4.993-1.054.632-2.261.949-3.62.949v-2.778c1.078 0 1.98-.375 2.706-1.125.516-.539.774-1.171.774-1.898 0-.938-.926-1.688-2.777-2.25-.47-.14-1.22-.34-2.25-.598-1.102-.258-1.899-.468-2.391-.633-1.781-.703-2.86-1.769-3.234-3.199a6.148 6.148 0 01-.141-1.336zm7.277-2.707v-2.777c2.016 0 3.645.75 4.887 2.25.773.96 1.16 1.969 1.16 3.023l-2.777.457c0-1.289-.703-2.19-2.11-2.707-.422-.164-.808-.246-1.16-.246zm8.438 11.145v-8.719c.023-1.078.539-2.144 1.547-3.2 1.218-1.241 2.695-1.874 4.43-1.898v2.778c-1.126 0-2.005.492-2.637 1.476-.258.422-.387.809-.387 1.16v2.391h7.875v-2.39c0-1.055-.54-1.829-1.617-2.32a3.48 3.48 0 00-1.512-.352V17.98c1.617 0 3.059.574 4.324 1.722 1.055 1.008 1.594 2.121 1.617 3.34v5.59H69.047v3.164c0 .656.375 1.265 1.125 1.828.61.422 1.254.633 1.934.633V37c-2.133 0-3.81-.867-5.028-2.602-.656-.914-.984-1.78-.984-2.601zM73.793 37v-2.777c1.406 0 2.46-.61 3.164-1.828.14-.258.246-.504.316-.739l2.496.914c-.421 1.617-1.382 2.836-2.882 3.657a6.444 6.444 0 01-3.094.773zm7.7-24.61h3.093l6.258 21.376L89.719 37h-1.09l-7.137-24.61zm8.577 13.044l4.36-13.043h3.093c-.21.68-1.09 3.398-2.636 8.156a1764.915 1764.915 0 00-3.094 9.527h-.352l-1.37-4.64zm9.14 4.71V18.578c0-1.242.528-2.508 1.583-3.797 1.406-1.687 3.187-2.543 5.344-2.566v3.058c-1.43 0-2.543.727-3.34 2.18-.328.633-.492 1.195-.492 1.688v11.004c0 1.476.726 2.625 2.179 3.445.61.351 1.149.527 1.618.527v3.059c-1.336 0-2.672-.48-4.008-1.442-1.899-1.406-2.86-3.27-2.883-5.59zm8.825 7.032v-3.059c.82 0 1.653-.363 2.496-1.09.891-.797 1.348-1.758 1.371-2.883V19.142c0-.914-.375-1.793-1.125-2.637-.773-.797-1.687-1.207-2.742-1.23v-3.06c2.367 0 4.266 1.02 5.695 3.06.821 1.171 1.231 2.273 1.231 3.304v11.567c0 2.601-1.16 4.593-3.481 5.976-1.218.703-2.367 1.055-3.445 1.055zm9.774-.176h3.058V12.39h-3.058V37zm4.816-11.004h3.797c3.07-.023 4.992-1.195 5.766-3.515.304-.938.457-2.051.457-3.34 0-4.29-1.934-6.54-5.801-6.75h-4.219v2.953h3.305c2.367.047 3.562 1.312 3.586 3.797-.047 2.554-1.231 3.843-3.551 3.867h-3.34v2.988zM.312 63l3.312-4.392L.516 54.48H1.5l2.832 3.792h1.164V54.48h.828v3.792h1.152l2.844-3.792h.984l-3.12 4.128L11.496 63h-.972L7.5 59.04H6.324V63h-.828v-3.96H4.308L1.284 63H.312zm14.068 0v-8.52h.828v7.368l5.28-7.368h.78V63h-.828v-7.236L15.22 63h-.84zm16.27 0v-7.776h-3.48l-.049 1.8c-.04 1.176-.124 2.152-.252 2.928-.128.776-.308 1.388-.54 1.836-.232.44-.52.756-.864.948-.336.184-.732.276-1.188.276v-.744c.312 0 .588-.08.828-.24.24-.16.444-.44.612-.84.168-.4.3-.952.396-1.656.104-.712.172-1.612.204-2.7l.072-2.352h5.088V63h-.828zm7.83.06c-.6 0-1.144-.12-1.632-.36a4.1 4.1 0 01-1.26-.984 4.574 4.574 0 01-1.104-2.976c0-.568.1-1.108.3-1.62.2-.52.48-.98.84-1.38a4.066 4.066 0 011.284-.96 3.54 3.54 0 011.584-.36c.592 0 1.132.124 1.62.372.488.248.908.58 1.26.996.36.416.632.88.816 1.392a4.507 4.507 0 01-.852 4.584c-.36.4-.784.716-1.272.948a3.642 3.642 0 01-1.584.348zm-3.156-4.32c0 .464.076.908.228 1.332.152.424.368.804.648 1.14.28.336.612.604.996.804.392.192.82.288 1.284.288.488 0 .924-.1 1.308-.3.392-.208.724-.484.996-.828.28-.344.492-.724.636-1.14a4.005 4.005 0 00-.012-2.628 3.605 3.605 0 00-.66-1.14c-.28-.336-.612-.6-.996-.792a2.804 2.804 0 00-1.272-.288c-.48 0-.916.1-1.308.3a3.15 3.15 0 00-.996.816 3.874 3.874 0 00-.636 1.14 4.005 4.005 0 00-.216 1.296zM45.548 63v-8.52h.828v7.368l5.28-7.368h.78V63h-.828v-7.236L46.388 63h-.84zm3.456-9.24c-.592 0-1.04-.128-1.344-.384-.304-.256-.46-.568-.468-.936h.66a.848.848 0 00.252.564c.168.168.468.252.9.252.424 0 .716-.076.876-.228a.822.822 0 00.264-.588h.66c-.008.368-.164.68-.468.936-.296.256-.74.384-1.332.384zM60.556 63v-8.52h.84v3.792h1.284l2.928-3.792h.972l-3.204 4.128L66.784 63h-1.032l-3.048-3.96h-1.308V63h-.84zm12.008.06c-.6 0-1.144-.12-1.632-.36a4.1 4.1 0 01-1.26-.984 4.574 4.574 0 01-1.104-2.976c0-.568.1-1.108.3-1.62.2-.52.48-.98.84-1.38a4.066 4.066 0 011.284-.96 3.54 3.54 0 011.584-.36c.592 0 1.132.124 1.62.372.488.248.908.58 1.26.996.36.416.632.88.816 1.392a4.507 4.507 0 01-.852 4.584c-.36.4-.784.716-1.272.948a3.642 3.642 0 01-1.584.348zm-3.156-4.32c0 .464.076.908.228 1.332.152.424.368.804.648 1.14.28.336.612.604.996.804.392.192.82.288 1.284.288.488 0 .924-.1 1.308-.3.392-.208.724-.484.996-.828.28-.344.492-.724.636-1.14a4.005 4.005 0 00-.012-2.628 3.605 3.605 0 00-.66-1.14c-.28-.336-.612-.6-.996-.792a2.804 2.804 0 00-1.272-.288c-.48 0-.916.1-1.308.3a3.15 3.15 0 00-.996.816 3.874 3.874 0 00-.636 1.14 4.005 4.005 0 00-.216 1.296zM87.132 63v-6.936l-3.084 5.388h-.528l-3.096-5.388V63h-.84v-8.52h.864l3.324 5.832 3.348-5.832h.852V63h-.84zm4.415 0v-8.52h6.433V63h-.84v-7.776h-4.752V63h-.84zm15.767 0v-7.776h-3.48l-.048 1.8c-.04 1.176-.124 2.152-.252 2.928-.128.776-.308 1.388-.54 1.836-.232.44-.52.756-.864.948-.336.184-.732.276-1.188.276v-.744c.312 0 .588-.08.828-.24.24-.16.444-.44.612-.84.168-.4.3-.952.396-1.656.104-.712.172-1.612.204-2.7l.072-2.352h5.088V63h-.828zm10.123-.744V63h-5.724v-8.52h5.616v.744h-4.776v3.072h4.164v.708h-4.164v3.252h4.884zm3.028.744v-8.52h.84v3.792h1.284l2.928-3.792h.972l-3.204 4.128L126.693 63h-1.032l-3.048-3.96h-1.308V63h-.84zm8.013-4.32c0-.512.088-1.02.264-1.524a4.5 4.5 0 01.792-1.368 3.68 3.68 0 011.272-.984c.504-.248 1.076-.372 1.716-.372.752 0 1.4.176 1.944.528.544.344.944.788 1.2 1.332l-.66.408a2.463 2.463 0 00-.696-.888 2.656 2.656 0 00-.9-.48 3.168 3.168 0 00-.936-.144c-.512 0-.964.104-1.356.312-.392.2-.724.472-.996.816a3.796 3.796 0 00-.6 1.14c-.136.416-.204.84-.204 1.272a3.796 3.796 0 00.912 2.496c.288.336.624.604 1.008.804.392.192.816.288 1.272.288a3.102 3.102 0 001.92-.684c.288-.232.524-.532.708-.9l.696.36c-.184.424-.46.784-.828 1.08-.36.296-.768.52-1.224.672a4.093 4.093 0 01-1.32.228c-.584 0-1.12-.124-1.608-.372a4.324 4.324 0 01-1.272-1.008 4.807 4.807 0 01-.816-1.416 4.64 4.64 0 01-.288-1.596z" fill="#fff"/></svg>